<?xml version="1.0" encoding="UTF-8"?>
<!DOCTYPE svg PUBLIC "-//W3C//DTD SVG 1.1//EN" "http://www.w3.org/Graphics/SVG/1.1/DTD/svg11.dtd">
<svg xmlns="http://www.w3.org/2000/svg" xmlns:xlink="http://www.w3.org/1999/xlink" version="1.1" width="201px" height="143px" viewBox="-0.5 -0.5 201 143"><defs/><g><rect x="0" y="11" width="160" height="40" rx="20" ry="20" fill="#306998" stroke="none" pointer-events="all"/><rect x="17" y="41" width="130.17" height="10" rx="5" ry="5" fill="#224a6b" stroke="none" pointer-events="all"/><rect x="40" y="91" width="160" height="40" rx="20" ry="20" fill="#306998" stroke="none" pointer-events="all"/><rect x="52.83" y="121" width="134.34" height="10" rx="5" ry="5" fill="#224a6b" stroke="none" pointer-events="all"/><ellipse cx="21" cy="31" rx="10" ry="10" fill="#ffffff" stroke="none" pointer-events="all"/><rect x="20" y="51" width="160" height="40" rx="20" ry="20" fill="#ffd43b" stroke="none" transform="rotate(-45,100,71)" pointer-events="all"/><rect x="43.05" y="76.78" width="134.34" height="10" rx="5" ry="5" fill="#e0bb34" stroke="none" transform="rotate(-45,110.22,81.78)" pointer-events="all"/><ellipse cx="80" cy="31" rx="10" ry="10" fill="#d1d1d1" stroke="none" pointer-events="all"/><ellipse cx="137.17" cy="31" rx="10" ry="10" fill="transparent" stroke="#858585" pointer-events="all"/><ellipse cx="100" cy="71" rx="10" ry="10" fill="transparent" stroke="#858585" pointer-events="all"/><ellipse cx="60" cy="111" rx="10" ry="10" fill="transparent" stroke="#858585" pointer-events="all"/><ellipse cx="177.17" cy="111" rx="10" ry="10" fill="#121212" stroke="none" pointer-events="all"/><ellipse cx="120" cy="111" rx="10" ry="10" fill="#333333" stroke="none" pointer-events="all"/><path d="M 90 31 L 127.17 31" fill="none" stroke="#858585" stroke-miterlimit="10" pointer-events="stroke"/><path d="M 31 30.9 L 70 31" fill="none" stroke="#858585" stroke-miterlimit="10" pointer-events="stroke"/><path d="M 70 110.9 L 110 111" fill="none" stroke="#858585" stroke-miterlimit="10" pointer-events="stroke"/><path d="M 130 110.9 L 167.17 110.9" fill="none" stroke="#858585" stroke-miterlimit="10" pointer-events="stroke"/><path d="M 107.07 63.93 L 130.1 38.07" fill="none" stroke="#858585" stroke-miterlimit="10" pointer-events="stroke"/><path d="M 67.07 103.93 L 92.93 78.07" fill="none" stroke="#858585" stroke-miterlimit="10" pointer-events="stroke"/></g></svg>